<svg xmlns="http://www.w3.org/2000/svg" width="40" height="40" viewBox="0 0 40 40"><path d="M18.09 8.83h11.66L36 15.08v9.84l-6.24 6.25h-10.5a1.63 1.63 0 0 0-1.2-.56 1.56 1.56 0 1 0 1.2 2.56h11.33L38 25.76V14.24l-7.4-7.41H18.09a1.63 1.63 0 0 0-1.2-.56 1.56 1.56 0 0 0 0 3.12 1.63 1.63 0 0 0 1.2-.56Zm-1.2-1.68a.63.63 0 0 1 .64.62.63.63 0 0 1-.61.66.64.64 0 0 1-.67-.61.67.67 0 0 1 .65-.64Zm1.2 24.38a.64.64 0 1 1 0 1.28.64.64 0 0 1-.64-.64.63.63 0 0 1 .62-.64Z" fill="#02a8e2" fill-rule="evenodd"/><path d="M29 10.83H14.06a1.5 1.5 0 0 0-1.13-.48 1.57 1.57 0 0 0 0 3.13 1.61 1.61 0 0 0 1.25-.65H28.1l3.9 3.93v6.52l-3.89 3.88H14a1.68 1.68 0 0 0-1.2-.56 1.56 1.56 0 0 0-1.56 1.57 1.56 1.56 0 0 0 2.76 1h14.91l5-5v-8.29Zm-16 .48a.65.65 0 0 1 .65.64.65.65 0 0 1-1.29 0 .61.61 0 0 1 .57-.64Zm-.12 16.18a.64.64 0 0 1 0 1.28.64.64 0 0 1-.64-.64.61.61 0 0 1 .57-.64Z" fill="#02a8e2" fill-rule="evenodd"/><path d="M26.62 25.08H8.53a1.46 1.46 0 0 1-1.08.44 1.56 1.56 0 0 1 0-3.12 1.59 1.59 0 0 1 1.28.68h5L11.61 21H4.76a1.6 1.6 0 0 1-1.19.56A1.56 1.56 0 1 1 4.76 19h7.69l4.13 4.08h9.84l1.49-1.48v-3.17L26.42 17h-9.16l2.08 2.09h4a1.59 1.59 0 0 1 1.2-.56 1.56 1.56 0 0 1 0 3.12 1.59 1.59 0 0 1-1.2-.56H18.5l-4.09-4.13H9a1.63 1.63 0 0 1-1.2.56 1.56 1.56 0 1 1 0-3.12 1.54 1.54 0 0 1 1.2.52h18.26L30 17.6v4.84l-2.69 2.64Zm-2-5.76a.64.64 0 1 0 .64.64.63.63 0 0 0-.64-.64ZM7.85 15.24a.64.64 0 0 0-.64.64.64.64 0 1 0 1.28 0 .66.66 0 0 0-.64-.64Zm-.4 8.08a.64.64 0 0 0-.64.64.64.64 0 1 0 1.28 0 .61.61 0 0 0-.64-.64Zm-3.84-4a.64.64 0 1 0 0 1.28.65.65 0 0 0 .64-.6.66.66 0 0 0-.64-.68Z" fill="#02a8e2" fill-rule="evenodd"/></svg>
