<svg xmlns="http://www.w3.org/2000/svg" width="16" height="16" viewBox="0 0 16 16"><path d="M7.2 3.32h4.86l2.61 2.6V10l-2.61 2.6H7.69a.66.66 0 0 0-.5-.23.65.65 0 1 0 0 1.3.64.64 0 0 0 .5-.24h4.72l3.09-3.08V5.57l-3.09-3.08H7.2a.67.67 0 0 0-.5-.24.65.65 0 1 0 .5 1.07Zm-.5-.7a.26.26 0 0 1 .3.26.26.26 0 0 1-.25.28.27.27 0 0 1-.28-.25.27.27 0 0 1 .27-.26Zm.5 10.16a.27.27 0 1 1 0 .53.26.26 0 0 1-.26-.26.26.26 0 0 1 .26-.27Z" fill="#02a8e2" fill-rule="evenodd"/><path d="M11.73 4.15H5.52A.63.63 0 0 0 5.05 4a.66.66 0 0 0-.64.66.65.65 0 0 0 1.18.34h5.79L13 6.62v2.72L11.38 11H5.49a.69.69 0 0 0-.5-.23.65.65 0 1 0 .5 1.06h6.22l2.1-2.1V6.26Zm-6.68.2a.27.27 0 1 1-.26.27.25.25 0 0 1 .26-.27ZM5 11.1a.27.27 0 1 1-.26.26.24.24 0 0 1 .26-.26Z" fill="#02a8e2" fill-rule="evenodd"/><path d="M10.76 10.09H3.22a.64.64 0 0 1-.45.19.65.65 0 0 1 0-1.3.66.66 0 0 1 .53.28h2.07l-.87-.87H1.65a.7.7 0 0 1-.5.24.65.65 0 1 1 0-1.3.64.64 0 0 1 .5.23h3.2l1.72 1.7h4.11l.62-.62V7.32l-.62-.61H6.86l.86.87h1.69a.7.7 0 0 1 .5-.24.66.66 0 0 1 0 1.31.65.65 0 0 1-.5-.24h-2L5.67 6.69H3.42a.69.69 0 0 1-.5.23.65.65 0 1 1 .5-1.06H11L12.15 7v2L11 10.09Zm-.85-2.4a.27.27 0 1 0 .27.27.27.27 0 0 0-.27-.27ZM2.94 6a.27.27 0 1 0 0 .53.26.26 0 0 0 .26-.26.27.27 0 0 0-.26-.27Zm-.17 3.36a.27.27 0 1 0 .23.27.26.26 0 0 0-.23-.27Zm-1.6-1.67A.27.27 0 0 0 .9 8a.27.27 0 0 0 .53 0 .27.27 0 0 0-.26-.31Z" fill="#02a8e2" fill-rule="evenodd"/></svg>
